<svg width="803" height="789" viewBox="0 0 803 789" fill="none" xmlns="http://www.w3.org/2000/svg">
<path d="M684.509 788.338C684.509 788.601 554.014 788.827 393.093 788.827C232.173 788.827 101.621 788.601 101.621 788.338C101.621 788.075 232.098 787.849 393.093 787.849C554.089 787.849 684.509 788.094 684.509 788.338Z" fill="#263238"/>
<path d="M557.359 558.28C528.324 538.003 521.747 500.361 522.893 466.516C523.081 460.878 522.461 454.902 525.149 449.96C527.836 445.017 534.113 441.616 539.168 443.983C543.358 445.957 545.181 450.843 547.53 454.883C550.665 460.265 555.258 464.649 560.779 467.531C564.369 469.41 568.822 470.537 572.374 468.583C577.26 465.896 577.824 459.187 577.786 453.549C577.786 443.063 577.724 432.589 577.599 422.128C577.261 416.51 577.832 410.875 579.29 405.44C581.038 400.103 584.928 395.16 590.246 393.657C595.564 392.154 602.198 395.254 603.401 400.742C603.608 403.066 603.664 405.401 603.57 407.733C603.72 410.082 604.81 412.656 607.009 413.37C609.208 414.085 611.5 412.45 613.192 410.796C618.98 405.158 622.926 397.81 626.591 390.556C630.255 383.302 633.845 375.842 639.106 369.659C644.368 363.476 651.641 358.571 659.778 358.102C667.915 357.632 676.391 362.631 678.421 370.523C680.45 378.416 675.846 386.478 670.904 392.887C663.445 402.399 654.654 410.785 644.801 417.787C642.877 418.837 641.342 420.477 640.422 422.466C639.2 426.225 642.752 429.983 646.454 431.167C650.645 432.558 655.193 432.125 659.609 432.652C664.025 433.178 668.724 435.095 670.396 439.229C672.689 444.979 667.878 450.993 663.161 454.94C653.69 462.832 642.935 469.043 631.364 473.3C627.23 474.803 622.889 476.138 619.543 479.032C616.198 481.926 614.206 486.981 616.217 490.946C618.228 494.911 623.396 496.17 627.737 495.362C632.078 494.554 635.931 492.224 640.065 490.664C647.789 487.751 657.749 488.278 662.616 494.949C664.124 497.247 665.078 499.863 665.404 502.593C665.73 505.322 665.419 508.09 664.495 510.678C662.614 515.83 659.72 520.552 655.982 524.566C643.674 539.272 627.682 550.446 609.64 556.945C591.73 563.147 575.137 564.838 557.34 558.317" fill="#1BA798"/>
<path d="M670.152 362.743C670.152 362.743 669.983 362.931 669.607 363.269L667.934 364.754C666.469 366.07 664.307 367.986 661.583 370.523C653.857 377.697 646.683 385.442 640.121 393.695C635.931 398.9 631.59 404.801 626.967 411.209C622.344 417.618 617.57 424.533 612.835 431.881C607.786 439.63 603.162 447.647 598.984 455.898C596.805 460.201 594.888 464.693 592.915 469.278L587.089 483.279C579.41 500.914 572.722 518.964 567.056 537.345C562.492 552.384 559.346 567.817 557.66 583.443C556.567 593.988 556.391 604.608 557.133 615.184C557.434 618.942 557.716 621.817 557.979 623.772C558.092 624.711 558.167 625.463 558.242 626.008V626.779C558.161 626.534 558.105 626.282 558.073 626.027C557.979 625.482 557.866 624.749 557.716 623.809C557.378 621.93 557.021 618.961 556.682 615.202C555.776 604.607 555.839 593.951 556.87 583.368C558.452 567.675 561.53 552.17 566.06 537.063C571.678 518.63 578.348 500.535 586.036 482.865L592.012 468.921C593.986 464.355 595.921 459.826 598.12 455.503C602.327 447.227 606.988 439.191 612.083 431.43C616.894 423.913 621.742 417.11 626.309 410.758C630.875 404.406 635.292 398.468 639.464 393.281C646.092 385.051 653.362 377.359 661.207 370.279C663.988 367.78 666.205 365.9 667.709 364.641L669.457 363.232C669.671 363.045 669.904 362.882 670.152 362.743Z" fill="#263238"/>
<path d="M598.364 455.466C598.099 454.692 597.917 453.892 597.819 453.079C597.519 451.519 597.18 449.321 596.786 446.464C595.978 440.826 595.151 433.103 594.268 424.552C593.384 416.001 592.388 408.259 591.561 402.677C591.129 399.896 590.753 397.66 590.49 396.1C590.285 395.302 590.178 394.481 590.171 393.657C590.494 394.41 590.728 395.198 590.866 396.006C591.28 397.547 591.749 399.765 592.276 402.565C593.347 408.202 594.399 415.87 595.282 424.439C596.166 433.009 596.917 440.526 597.5 446.37C597.782 449.001 598.026 451.237 598.214 453.023C598.36 453.828 598.41 454.648 598.364 455.466Z" fill="#263238"/>
<path d="M670.678 441.973C669.764 442.172 668.832 442.285 667.897 442.311C666.017 442.48 663.349 442.706 660.041 443.081C653.426 443.796 644.331 445.111 634.352 446.99C624.373 448.87 615.409 450.993 608.963 452.628C605.75 453.455 603.156 454.207 601.446 454.714C600.533 455.039 599.588 455.265 598.627 455.391C599.496 454.954 600.401 454.595 601.334 454.319C603.1 453.699 605.656 452.835 608.851 451.914C615.259 450.035 624.223 447.798 634.239 445.882C642.724 444.259 651.286 443.067 659.891 442.311C663.217 442.029 665.905 441.916 667.784 441.879C668.749 441.813 669.719 441.845 670.678 441.973Z" fill="#263238"/>
<path d="M566.981 535.748C566.78 535.475 566.616 535.179 566.492 534.864L565.252 532.252C564.181 529.978 562.734 526.614 561.005 522.499C557.509 514.23 553.055 502.654 548.32 489.8C543.584 476.946 539.224 465.369 535.917 457.007C534.3 452.948 532.966 449.621 531.97 447.141L530.918 444.453C530.772 444.143 530.671 443.814 530.617 443.476C530.818 443.748 530.982 444.045 531.106 444.359L532.346 446.972C533.398 449.245 534.864 452.609 536.593 456.725C540.089 464.994 544.542 476.57 549.278 489.424C554.014 502.278 558.374 513.854 561.681 522.217C563.297 526.276 564.632 529.602 565.609 532.083C566.041 533.154 566.398 533.962 566.68 534.77C566.826 535.08 566.927 535.409 566.981 535.748Z" fill="#263238"/>
<path d="M662.973 504.796C662.672 504.969 662.35 505.102 662.015 505.191L659.233 506.13L648.954 509.457C640.272 512.276 628.282 516.297 615.127 520.732C601.973 525.167 589.926 529.114 581.188 531.745C576.828 533.079 573.276 534.094 570.814 534.77L567.977 535.503C567.647 535.608 567.307 535.677 566.962 535.71C567.263 535.537 567.585 535.405 567.92 535.315L570.702 534.376L580.981 531.049C589.663 528.231 601.653 524.209 614.808 519.774C627.963 515.339 639.99 511.392 648.728 508.761C653.107 507.427 656.64 506.412 659.121 505.736L661.958 505.003C662.288 504.898 662.629 504.829 662.973 504.796Z" fill="#263238"/>
<path d="M623.81 48.9453L614.131 52.4031L609.978 39.7557C602.348 16.4342 578.031 4.0499 555.687 11.924C533.342 19.7981 521.447 45.3747 529.076 68.6963L533.229 81.3437L523.514 84.8203C519.809 86.2573 516.8 89.0667 515.113 92.6645C513.426 96.2624 513.191 100.372 514.456 104.139L541.385 186.432C541.944 188.296 542.873 190.03 544.115 191.529C545.357 193.028 546.888 194.262 548.616 195.158C550.345 196.054 552.235 196.593 554.176 196.743C556.117 196.894 558.069 196.653 559.915 196.035L660.211 160.16C663.964 158.725 667.016 155.891 668.722 152.253C670.429 148.615 670.659 144.457 669.363 140.653L642.414 58.3604C641.841 56.5008 640.898 54.7757 639.644 53.2882C638.389 51.8007 636.847 50.5813 635.111 49.7026C633.375 48.8239 631.479 48.3039 629.537 48.1738C627.596 48.0437 625.648 48.3061 623.81 48.9453ZM547.361 62.1001C545.304 56.0361 545.673 49.4113 548.392 43.6136C551.11 37.8159 555.967 33.2951 561.944 30.9984C564.896 29.9886 568.021 29.5836 571.132 29.8077C574.244 30.0318 577.278 30.8804 580.055 32.3028C582.831 33.7252 585.292 35.6922 587.292 38.0866C589.292 40.481 590.788 43.2537 591.693 46.2392L595.827 58.8866L551.496 74.7475L547.361 62.1001ZM603.739 135.128L610.617 156.138C610.743 156.559 610.703 157.013 610.503 157.405C610.304 157.797 609.961 158.097 609.546 158.243L599.905 161.682C599.522 161.788 599.112 161.742 598.761 161.553C598.411 161.364 598.148 161.046 598.026 160.667L591.092 139.751C587.268 139.543 583.599 138.171 580.577 135.82C577.554 133.469 575.322 130.251 574.178 126.596C572.544 121.764 572.842 116.488 575.01 111.871C577.179 107.254 581.049 103.655 585.811 101.828C588.162 101.024 590.651 100.702 593.129 100.881C595.607 101.06 598.024 101.737 600.236 102.869C602.447 104.002 604.408 105.569 606.001 107.475C607.594 109.382 608.787 111.59 609.508 113.968C610.717 117.68 610.818 121.665 609.796 125.433C608.775 129.202 606.676 132.59 603.758 135.184L603.739 135.128Z" fill="#1BA798"/>
<path d="M613.699 52.1776C613.699 52.4407 595.752 59.1873 573.427 67.2117C551.101 75.2361 532.891 81.6819 532.797 81.494C532.703 81.3061 550.744 74.5032 573.088 66.46C595.433 58.4168 613.605 51.9333 613.699 52.1776Z" fill="#263238"/>
<path d="M635.01 55.6355C635.093 55.7986 635.162 55.9683 635.217 56.1429C635.367 56.5187 635.536 57.0073 635.762 57.6087C636.25 58.9805 636.927 60.8786 637.772 63.2464L644.989 84.2565C647.996 93.1642 651.585 103.726 655.569 115.452C657.448 121.334 659.666 127.461 661.733 133.906C662.839 137.228 663.317 140.727 663.142 144.224C662.983 146.042 662.466 147.811 661.62 149.429C660.717 151.042 659.511 152.465 658.068 153.62C655.165 155.739 651.942 157.382 648.522 158.487L638.844 161.964L620.521 168.522L589.494 179.572L568.541 186.939L562.903 188.818L561.399 189.307C561.239 189.378 561.067 189.423 560.892 189.438C560.892 189.438 561.042 189.438 561.362 189.213L562.828 188.63L568.465 186.507L589.306 178.839L620.277 167.564L638.562 160.949L648.24 157.453C651.563 156.394 654.692 154.8 657.505 152.737C658.847 151.665 659.97 150.344 660.812 148.847C661.608 147.35 662.088 145.706 662.222 144.017C662.395 140.648 661.936 137.276 660.868 134.076C658.839 127.686 656.697 121.503 654.761 115.621C650.852 103.876 647.244 93.2769 644.387 84.3693C641.531 75.4616 639.125 68.3016 637.472 63.2652C636.682 60.8034 636.081 58.8866 635.592 57.4959L635.141 55.9925C635.085 55.8786 635.041 55.7589 635.01 55.6355Z" fill="#263238"/>
<path d="M582.09 29.7205C582.09 29.7205 581.094 29.2319 579.252 28.4802C576.627 27.4716 573.851 26.9125 571.04 26.8265C566.874 26.6836 562.727 27.4666 558.9 29.1192C554.246 31.1769 550.266 34.5052 547.418 38.7222C544.55 42.927 543.012 47.8962 543.002 52.9857C543.041 57.1571 543.673 61.3017 544.881 65.2948C545.858 68.7151 546.873 71.44 547.549 73.338C547.948 74.3021 548.275 75.2946 548.527 76.3073C547.993 75.4059 547.546 74.4557 547.192 73.4696C546.422 71.5903 545.313 68.9218 544.223 65.4828C542.885 61.4478 542.157 57.2357 542.062 52.9857C542.012 47.7039 543.586 42.5343 546.572 38.1772C549.52 33.8062 553.662 30.375 558.505 28.2923C562.452 26.6307 566.728 25.8978 571.002 26.1499C573.874 26.2963 576.695 26.965 579.328 28.1232C580.031 28.4478 580.71 28.8247 581.357 29.2507C581.624 29.3682 581.872 29.5267 582.09 29.7205Z" fill="#263238"/>
<path d="M582.955 103.256C583.255 103.074 583.569 102.917 583.894 102.786C584.835 102.361 585.809 102.016 586.807 101.752C588.391 101.285 590.025 101.007 591.674 100.926C593.918 100.805 596.163 101.144 598.271 101.922C603.081 103.613 607.498 108.518 609.678 115.076C610.723 118.596 610.723 122.344 609.678 125.863C608.518 129.683 606.441 133.161 603.626 135.992L603.739 135.485C606.239 142.344 608.963 149.786 611.782 157.547L611.952 158.017L611.482 158.186L607.178 159.615L597.782 162.753L597.312 162.903L597.162 162.434C594.587 154.653 591.768 147.399 589.645 140.277L590.058 140.597C586.384 140.291 582.881 138.912 579.985 136.631C577.365 134.613 575.217 132.048 573.69 129.114C572.312 126.513 571.626 123.601 571.698 120.658C571.785 117.65 572.536 114.698 573.897 112.015C575.258 109.331 577.196 106.982 579.572 105.135C580.55 104.341 581.647 103.707 582.823 103.256C581.761 103.886 580.733 104.569 579.741 105.304C577.131 107.512 575.132 110.353 573.934 113.554C572.906 115.968 572.425 118.58 572.526 121.202C572.627 123.824 573.306 126.391 574.517 128.72C576.018 131.542 578.115 134.004 580.662 135.936C583.425 138.104 586.764 139.411 590.265 139.695H590.584L590.678 139.976C592.746 146.967 595.583 154.278 598.195 162.095L597.575 161.795L606.971 158.656L611.256 157.209L610.956 157.848C608.155 150.087 605.449 142.626 602.969 135.767V135.485L603.194 135.26C605.926 132.546 607.963 129.213 609.133 125.544C610.129 122.177 610.129 118.593 609.133 115.227C607.084 108.912 602.856 104.12 598.271 102.429C596.241 101.646 594.074 101.282 591.9 101.358C590.277 101.395 588.663 101.616 587.089 102.015C584.289 102.711 582.973 103.35 582.955 103.256Z" fill="#263238"/>
<path d="M524.867 645.872L337.148 645.007C326.307 644.948 315.934 640.588 308.305 632.885C300.677 625.183 296.417 614.768 296.462 603.927L298.454 133.343C298.476 127.972 299.557 122.658 301.634 117.705C303.711 112.752 306.743 108.257 310.558 104.477C314.374 100.696 318.896 97.705 323.868 95.6737C328.84 93.6423 334.164 92.6108 339.535 92.638L527.234 93.5024C538.075 93.5571 548.451 97.9122 556.083 105.611C563.715 113.31 567.979 123.723 567.939 134.564L565.947 605.13C565.925 610.502 564.845 615.818 562.768 620.773C560.692 625.728 557.66 630.226 553.845 634.009C550.03 637.792 545.508 640.787 540.536 642.823C535.564 644.858 530.239 645.894 524.867 645.872Z" fill="#455A64"/>
<path d="M526.953 109.683H490.57C489.383 109.705 488.212 109.96 487.124 110.435C486.035 110.91 485.051 111.594 484.228 112.449C483.404 113.305 482.757 114.314 482.323 115.419C481.889 116.524 481.678 117.704 481.7 118.891V125.487C481.723 126.674 481.511 127.852 481.077 128.957C480.643 130.061 479.995 131.069 479.172 131.922C478.348 132.776 477.363 133.459 476.275 133.931C475.187 134.404 474.016 134.657 472.83 134.677L401.907 134.357C399.508 134.293 397.232 133.28 395.579 131.539C393.927 129.799 393.033 127.473 393.093 125.074V118.478C393.154 116.082 392.262 113.759 390.614 112.019C388.965 110.279 386.694 109.263 384.298 109.194H371.501L339.647 109.044C332.071 108.999 324.785 111.958 319.386 117.273C313.986 122.588 310.913 129.826 310.838 137.402L308.959 596.729C308.942 600.488 309.665 604.213 311.087 607.692C312.51 611.171 314.603 614.336 317.249 617.006C319.894 619.676 323.04 621.799 326.506 623.253C329.972 624.707 333.69 625.465 337.449 625.482L524.773 626.346C528.534 626.364 532.261 625.64 535.743 624.217C539.224 622.793 542.391 620.698 545.063 618.051C547.734 615.404 549.858 612.256 551.314 608.788C552.769 605.32 553.527 601.599 553.544 597.838L555.423 138.511C555.468 130.913 552.495 123.609 547.156 118.203C541.817 112.797 534.55 109.733 526.953 109.683Z" fill="white"/>
<path d="M501.752 565.064L362.461 564.463C361.014 564.463 359.849 562.884 359.868 560.967L360.018 524.528C360.018 522.649 361.202 521.033 362.649 521.033L501.94 521.672C502.742 521.811 503.459 522.253 503.942 522.908C504.425 523.563 504.637 524.379 504.533 525.186L504.402 561.587C504.402 563.523 503.199 565.083 501.752 565.064Z" fill="#1BA798"/>
<path d="M404.222 535.424C404.188 535.132 404.047 534.904 403.801 534.743C403.554 534.581 403.252 534.5 402.894 534.5C402.632 534.5 402.403 534.542 402.207 534.627C402.012 534.712 401.86 534.828 401.751 534.977C401.643 535.125 401.589 535.293 401.589 535.482C401.589 535.64 401.626 535.775 401.701 535.889C401.778 536.001 401.877 536.094 401.996 536.169C402.115 536.242 402.24 536.303 402.371 536.351C402.502 536.397 402.623 536.435 402.732 536.464L403.333 536.625C403.487 536.666 403.658 536.722 403.847 536.793C404.037 536.864 404.219 536.961 404.393 537.084C404.568 537.206 404.712 537.362 404.826 537.552C404.939 537.743 404.996 537.977 404.996 538.254C404.996 538.573 404.912 538.862 404.745 539.12C404.579 539.378 404.337 539.583 404.017 539.735C403.7 539.887 403.314 539.963 402.859 539.963C402.436 539.963 402.069 539.895 401.759 539.758C401.451 539.622 401.209 539.431 401.032 539.187C400.856 538.942 400.757 538.658 400.734 538.335H401.473C401.493 538.558 401.568 538.743 401.699 538.889C401.831 539.034 401.999 539.141 402.201 539.213C402.405 539.282 402.624 539.317 402.859 539.317C403.133 539.317 403.378 539.272 403.596 539.184C403.813 539.093 403.985 538.968 404.113 538.808C404.24 538.647 404.303 538.458 404.303 538.242C404.303 538.046 404.248 537.886 404.138 537.763C404.029 537.64 403.884 537.54 403.705 537.463C403.526 537.386 403.333 537.318 403.125 537.261L402.397 537.053C401.935 536.92 401.57 536.73 401.3 536.484C401.031 536.237 400.896 535.915 400.896 535.517C400.896 535.185 400.985 534.897 401.164 534.65C401.345 534.402 401.588 534.209 401.892 534.073C402.198 533.934 402.54 533.865 402.917 533.865C403.298 533.865 403.637 533.933 403.933 534.07C404.23 534.205 404.465 534.389 404.638 534.624C404.813 534.859 404.906 535.126 404.915 535.424H404.222ZM406.89 533.946V539.859H406.173V533.946H406.89ZM413.015 533.946V539.859H412.322L409.099 535.216H409.042V539.859H408.325V533.946H409.018L412.252 538.6H412.31V533.946H413.015ZM418.49 535.794C418.427 535.599 418.343 535.425 418.239 535.271C418.137 535.115 418.015 534.982 417.872 534.873C417.732 534.763 417.572 534.679 417.393 534.621C417.214 534.564 417.018 534.535 416.804 534.535C416.454 534.535 416.135 534.625 415.848 534.806C415.561 534.987 415.333 535.254 415.164 535.606C414.994 535.958 414.91 536.39 414.91 536.903C414.91 537.415 414.995 537.847 415.167 538.199C415.338 538.551 415.57 538.818 415.863 538.999C416.155 539.18 416.484 539.27 416.85 539.27C417.189 539.27 417.487 539.198 417.745 539.054C418.005 538.907 418.207 538.701 418.352 538.436C418.498 538.168 418.571 537.854 418.571 537.492L418.791 537.538H417.012V536.903H419.264V537.538C419.264 538.025 419.16 538.448 418.952 538.808C418.746 539.168 418.461 539.447 418.098 539.646C417.736 539.842 417.32 539.94 416.85 539.94C416.327 539.94 415.866 539.817 415.47 539.571C415.075 539.324 414.767 538.974 414.546 538.52C414.326 538.065 414.217 537.526 414.217 536.903C414.217 536.435 414.279 536.014 414.404 535.641C414.531 535.265 414.71 534.946 414.941 534.682C415.172 534.418 415.446 534.216 415.762 534.076C416.077 533.935 416.425 533.865 416.804 533.865C417.116 533.865 417.406 533.912 417.676 534.006C417.947 534.099 418.189 534.231 418.401 534.402C418.614 534.571 418.792 534.774 418.935 535.011C419.077 535.246 419.176 535.507 419.229 535.794H418.49ZM426.658 533.946H427.374V537.861C427.374 538.265 427.279 538.626 427.089 538.944C426.9 539.26 426.633 539.509 426.289 539.692C425.944 539.873 425.54 539.963 425.076 539.963C424.612 539.963 424.208 539.873 423.863 539.692C423.519 539.509 423.251 539.26 423.06 538.944C422.872 538.626 422.778 538.265 422.778 537.861V533.946H423.494V537.803C423.494 538.092 423.557 538.349 423.684 538.574C423.811 538.798 423.992 538.974 424.227 539.103C424.464 539.23 424.747 539.293 425.076 539.293C425.405 539.293 425.688 539.23 425.925 539.103C426.162 538.974 426.343 538.798 426.468 538.574C426.595 538.349 426.658 538.092 426.658 537.803V533.946ZM428.805 539.859V533.946H430.803C431.267 533.946 431.646 534.029 431.94 534.197C432.237 534.362 432.456 534.587 432.599 534.87C432.741 535.153 432.812 535.468 432.812 535.817C432.812 536.165 432.741 536.482 432.599 536.767C432.458 537.052 432.241 537.279 431.946 537.448C431.652 537.616 431.274 537.7 430.814 537.7H429.382V537.064H430.791C431.109 537.064 431.364 537.009 431.556 536.9C431.749 536.79 431.888 536.642 431.975 536.455C432.064 536.266 432.108 536.054 432.108 535.817C432.108 535.58 432.064 535.368 431.975 535.182C431.888 534.995 431.748 534.849 431.553 534.743C431.359 534.635 431.101 534.581 430.78 534.581H429.521V539.859H428.805Z" fill="#E8E8E3"/>
<path d="M390.245 244.708L341.911 244.488L341.87 253.358L390.204 253.578L390.245 244.708Z" fill="#1BA798"/>
<path opacity="0.1" d="M390.245 244.708L341.911 244.488L341.87 253.358L390.204 253.578L390.245 244.708Z" fill="black"/>
<path d="M531.933 299.168C532.312 299.13 532.685 299.041 533.041 298.905C533.562 298.702 534.014 298.356 534.346 297.907C534.679 297.458 534.878 296.925 534.921 296.368C534.921 293.38 534.921 289.02 534.921 283.42C534.921 280.62 534.921 277.481 534.921 274.024C534.921 273.178 534.921 272.295 534.921 271.411C535.043 270.554 534.857 269.682 534.394 268.95C534.136 268.599 533.799 268.312 533.411 268.114C533.023 267.915 532.594 267.808 532.158 267.803H529.227H502.071L344.89 267.221C344.488 267.214 344.09 267.304 343.73 267.484C343.37 267.664 343.059 267.928 342.823 268.254C342.369 268.989 342.196 269.864 342.335 270.716C342.335 272.595 342.335 274.475 342.335 276.354C342.335 280.112 342.335 283.871 342.335 287.629C342.335 289.509 342.335 291.388 342.335 293.267C342.257 294.142 342.257 295.023 342.335 295.898C342.433 296.273 342.617 296.621 342.871 296.914C343.125 297.207 343.443 297.438 343.8 297.59C344.171 297.737 344.567 297.807 344.966 297.796H354.531L396.269 298.022L466.929 298.454L514.568 298.83L527.516 298.98H530.88C531.651 298.98 532.027 298.98 532.027 298.98H530.88H527.516H514.568H466.929L396.269 298.755L354.531 298.586H344.966C344.439 298.607 343.914 298.517 343.425 298.322C342.93 298.111 342.49 297.79 342.138 297.383C341.786 296.976 341.532 296.494 341.395 295.973C341.286 295.48 341.248 294.974 341.282 294.47V293.079C341.282 291.2 341.282 289.321 341.282 287.442C341.282 283.683 341.282 279.925 341.282 276.166C341.282 274.287 341.282 272.407 341.282 270.528C341.246 270.028 341.246 269.525 341.282 269.025C341.353 268.472 341.566 267.947 341.902 267.503C342.227 267.049 342.656 266.681 343.153 266.429C343.65 266.177 344.201 266.049 344.759 266.056L501.94 266.92L529.095 267.108H532.027C532.543 267.108 533.052 267.233 533.51 267.472C533.968 267.711 534.362 268.057 534.658 268.48C535.187 269.297 535.401 270.279 535.259 271.242C535.259 272.126 535.259 273.009 535.259 273.855C535.259 277.275 535.259 280.413 535.259 283.251C535.259 288.889 535.127 293.211 535.09 296.218C535.044 296.796 534.834 297.349 534.484 297.812C534.135 298.274 533.66 298.628 533.117 298.83C532.761 299.05 532.351 299.167 531.933 299.168Z" fill="#E0E0E0"/>
<path d="M444.829 276.655H356.429V284.942H444.829V276.655Z" fill="#1BA798"/>
<path opacity="0.2" d="M444.829 276.655H356.429V284.942H444.829V276.655Z" fill="white"/>
<path d="M389.915 325.626L341.581 325.407L341.541 334.277L389.875 334.496L389.915 325.626Z" fill="#1BA798"/>
<path opacity="0.1" d="M389.915 325.626L341.581 325.407L341.541 334.277L389.875 334.496L389.915 325.626Z" fill="black"/>
<path d="M530.711 380.089C531.091 380.042 531.467 379.973 531.839 379.882C532.364 379.715 532.846 379.437 533.255 379.068C533.663 378.698 533.988 378.245 534.206 377.74C534.502 376.981 534.618 376.164 534.545 375.353C534.545 374.451 534.545 373.474 534.545 372.384C534.545 370.204 534.545 367.723 534.545 364.867V352.934C534.634 352.07 534.443 351.2 534 350.453C533.536 349.687 532.807 349.119 531.951 348.856C531.015 348.689 530.062 348.638 529.114 348.705H502.071L345.435 348.123C344.593 348.125 343.78 348.433 343.147 348.989C342.515 349.546 342.106 350.313 341.996 351.148C341.996 352.934 341.996 354.907 341.996 356.786C341.996 360.545 341.996 364.303 341.996 368.062C341.996 369.941 341.996 371.82 341.996 373.699C341.926 374.578 341.964 375.461 342.109 376.33C342.344 377.092 342.827 377.754 343.481 378.21C344.175 378.65 344.991 378.861 345.811 378.811H348.423H353.854L395.442 379.018L465.858 379.45L513.328 379.826L526.238 379.976H529.602H530.73H529.602H526.238H513.328H465.858L395.405 379.901L353.817 379.751H345.642C344.626 379.811 343.617 379.541 342.767 378.98C341.912 378.388 341.288 377.518 341 376.518C340.832 375.563 340.781 374.591 340.85 373.624C340.85 371.745 340.85 369.866 340.85 367.986C340.85 364.228 340.85 360.469 340.85 356.711C340.85 354.832 340.85 352.952 340.85 351.073C340.987 349.999 341.511 349.011 342.324 348.295C343.137 347.579 344.183 347.184 345.266 347.183L501.902 348.048L528.945 348.254C529.952 348.192 530.962 348.262 531.951 348.461C532.928 348.78 533.751 349.45 534.263 350.34C534.749 351.168 534.96 352.129 534.864 353.084C534.864 353.967 534.864 354.832 534.864 355.696C534.864 359.098 534.864 362.217 534.864 365.092C534.864 367.968 534.864 370.392 534.864 372.609C534.864 373.681 534.864 374.677 534.864 375.597C534.933 376.438 534.797 377.282 534.47 378.059C534.226 378.578 533.873 379.038 533.435 379.407C532.997 379.777 532.485 380.048 531.933 380.202C531.522 380.236 531.109 380.197 530.711 380.089Z" fill="#E0E0E0"/>
<path d="M389.551 410.058L341.217 409.839L341.177 418.709L389.51 418.928L389.551 410.058Z" fill="#1BA798"/>
<path opacity="0.1" d="M389.551 410.058L341.217 409.839L341.177 418.709L389.51 418.928L389.551 410.058Z" fill="black"/>
<path d="M530.335 464.486C530.715 464.441 531.092 464.372 531.463 464.279C531.985 464.113 532.467 463.838 532.875 463.472C533.283 463.106 533.609 462.657 533.831 462.156C534.125 461.397 534.241 460.58 534.169 459.769C534.169 458.848 534.169 457.89 534.169 456.781C534.169 454.62 534.169 452.121 534.169 449.264V437.331C534.259 436.467 534.068 435.597 533.624 434.85C533.149 434.098 532.424 433.539 531.576 433.272C530.64 433.098 529.687 433.041 528.738 433.103H501.695L345.06 432.52C344.217 432.522 343.404 432.83 342.771 433.386C342.139 433.943 341.73 434.71 341.621 435.546C341.621 437.425 341.621 439.304 341.621 441.183C341.621 444.942 341.621 448.7 341.621 452.459C341.621 454.338 341.621 456.217 341.621 458.097C341.551 458.969 341.588 459.846 341.733 460.709C341.958 461.476 342.443 462.14 343.105 462.588C343.795 463.039 344.614 463.25 345.435 463.189H353.61L395.198 463.415L465.614 463.847L513.084 464.223L525.994 464.373H529.358C530.11 464.373 530.486 464.373 530.486 464.373C530.486 464.373 530.11 464.373 529.358 464.373H525.994H513.084H465.614L395.198 464.167L353.61 463.998H345.435C344.418 464.066 343.407 463.795 342.56 463.227C341.705 462.635 341.081 461.765 340.794 460.765C340.625 459.81 340.575 458.838 340.643 457.871C340.643 455.992 340.643 454.113 340.643 452.233C340.643 448.475 340.643 444.716 340.643 440.958C340.643 439.079 340.643 437.199 340.643 435.226C340.776 434.153 341.296 433.166 342.106 432.449C342.916 431.733 343.96 431.337 345.041 431.336L501.677 432.201L528.719 432.407C529.726 432.345 530.737 432.415 531.726 432.614C532.702 432.933 533.526 433.602 534.037 434.493C534.524 435.321 534.734 436.282 534.639 437.237C534.639 438.12 534.639 439.003 534.639 439.849C534.639 443.251 534.639 446.37 534.639 449.245C534.639 452.121 534.639 454.545 534.639 456.762C534.639 457.834 534.639 458.83 534.639 459.75C534.711 460.591 534.575 461.436 534.244 462.212C534 462.731 533.647 463.191 533.209 463.56C532.772 463.93 532.259 464.201 531.707 464.355C531.266 464.505 530.797 464.55 530.335 464.486Z" fill="#E0E0E0"/>
<path d="M442.942 359.918L354.543 359.517L354.505 367.805L442.904 368.206L442.942 359.918Z" fill="#1BA798"/>
<path opacity="0.2" d="M442.942 359.918L354.543 359.517L354.505 367.805L442.904 368.206L442.942 359.918Z" fill="white"/>
<path d="M362.537 449.151C362.481 449.907 362.205 450.63 361.742 451.231C361.28 451.831 360.651 452.283 359.934 452.529C359.218 452.776 358.444 452.806 357.71 452.617C356.976 452.428 356.314 452.028 355.805 451.466C355.297 450.904 354.964 450.205 354.849 449.456C354.734 448.707 354.842 447.94 355.158 447.251C355.475 446.563 355.987 445.982 356.63 445.582C357.274 445.181 358.02 444.978 358.778 444.998C359.825 445.057 360.807 445.525 361.51 446.303C362.214 447.08 362.583 448.104 362.537 449.151Z" fill="#1BA798"/>
<path d="M374.507 449.208C374.544 449.738 374.472 450.269 374.295 450.77C374.117 451.271 373.839 451.729 373.477 452.118C373.114 452.506 372.676 452.816 372.189 453.028C371.702 453.239 371.177 453.349 370.646 453.349C370.114 453.349 369.589 453.239 369.102 453.028C368.615 452.816 368.177 452.506 367.814 452.118C367.452 451.729 367.174 451.271 366.996 450.77C366.819 450.269 366.747 449.738 366.784 449.208C366.747 448.678 366.819 448.146 366.996 447.646C367.174 447.145 367.452 446.686 367.814 446.298C368.177 445.909 368.615 445.6 369.102 445.388C369.589 445.176 370.114 445.067 370.646 445.067C371.177 445.067 371.702 445.176 372.189 445.388C372.676 445.6 373.114 445.909 373.477 446.298C373.839 446.686 374.117 447.145 374.295 447.646C374.472 448.146 374.544 448.678 374.507 449.208Z" fill="#1BA798"/>
<path d="M386.497 449.264C386.442 450.02 386.166 450.743 385.703 451.344C385.24 451.944 384.612 452.395 383.895 452.642C383.178 452.888 382.405 452.919 381.671 452.73C380.937 452.541 380.274 452.141 379.766 451.579C379.257 451.017 378.925 450.318 378.81 449.568C378.695 448.819 378.802 448.053 379.119 447.364C379.435 446.675 379.947 446.095 380.591 445.694C381.234 445.294 381.981 445.091 382.739 445.111C383.784 445.174 384.763 445.644 385.465 446.421C386.168 447.197 386.538 448.218 386.497 449.264Z" fill="#1BA798"/>
<path d="M398.468 449.321C398.413 450.076 398.136 450.799 397.674 451.4C397.211 452 396.583 452.452 395.866 452.698C395.149 452.945 394.376 452.975 393.642 452.786C392.908 452.597 392.245 452.197 391.737 451.635C391.228 451.073 390.896 450.374 390.781 449.625C390.666 448.876 390.773 448.109 391.09 447.42C391.406 446.732 391.918 446.151 392.561 445.751C393.205 445.35 393.952 445.147 394.709 445.167C395.755 445.23 396.734 445.701 397.436 446.477C398.139 447.253 398.509 448.274 398.468 449.321Z" fill="#1BA798"/>
<path d="M410.439 449.358C410.387 450.115 410.114 450.84 409.653 451.443C409.193 452.046 408.565 452.501 407.848 452.75C407.132 452.999 406.357 453.033 405.622 452.845C404.887 452.658 404.223 452.259 403.712 451.698C403.202 451.136 402.867 450.437 402.751 449.687C402.635 448.938 402.741 448.17 403.058 447.48C403.374 446.791 403.886 446.209 404.53 445.808C405.174 445.407 405.922 445.203 406.68 445.224C407.722 445.287 408.698 445.754 409.4 446.527C410.102 447.299 410.475 448.315 410.439 449.358Z" fill="#1BA798"/>
<path d="M422.429 449.415C422.377 450.168 422.107 450.889 421.651 451.491C421.195 452.092 420.572 452.547 419.861 452.8C419.15 453.052 418.38 453.091 417.647 452.912C416.913 452.733 416.249 452.343 415.734 451.791C415.219 451.238 414.877 450.548 414.75 449.804C414.623 449.059 414.716 448.294 415.018 447.603C415.32 446.911 415.818 446.322 416.45 445.91C417.082 445.497 417.821 445.278 418.576 445.28C419.635 445.319 420.634 445.777 421.356 446.551C422.079 447.326 422.464 448.356 422.429 449.415Z" fill="#1BA798"/>
<path d="M434.399 449.471C434.436 450.001 434.364 450.532 434.187 451.033C434.009 451.534 433.731 451.992 433.369 452.381C433.006 452.769 432.568 453.079 432.081 453.291C431.594 453.502 431.069 453.612 430.538 453.612C430.006 453.612 429.481 453.502 428.994 453.291C428.507 453.079 428.069 452.769 427.706 452.381C427.344 451.992 427.066 451.534 426.888 451.033C426.711 450.532 426.639 450.001 426.676 449.471C426.639 448.941 426.711 448.409 426.888 447.909C427.066 447.408 427.344 446.949 427.706 446.561C428.069 446.173 428.507 445.863 428.994 445.651C429.481 445.439 430.006 445.33 430.538 445.33C431.069 445.33 431.594 445.439 432.081 445.651C432.568 445.863 433.006 446.173 433.369 446.561C433.731 446.949 434.009 447.408 434.187 447.909C434.364 448.409 434.436 448.941 434.399 449.471Z" fill="#1BA798"/>
<path d="M446.37 449.527C446.319 450.28 446.048 451.002 445.592 451.604C445.136 452.205 444.514 452.66 443.803 452.912C443.091 453.165 442.322 453.204 441.588 453.025C440.855 452.845 440.19 452.456 439.676 451.903C439.161 451.351 438.819 450.66 438.692 449.916C438.565 449.172 438.658 448.407 438.96 447.715C439.262 447.024 439.76 446.435 440.392 446.022C441.024 445.61 441.763 445.391 442.518 445.393C443.576 445.432 444.576 445.889 445.298 446.664C446.02 447.439 446.406 448.469 446.37 449.527Z" fill="#1BA798"/>
<path d="M458.341 449.584C458.289 450.341 458.016 451.066 457.555 451.669C457.095 452.272 456.467 452.726 455.751 452.976C455.034 453.225 454.26 453.258 453.524 453.071C452.789 452.884 452.125 452.485 451.614 451.923C451.104 451.362 450.77 450.663 450.653 449.913C450.537 449.163 450.644 448.396 450.96 447.706C451.276 447.016 451.788 446.434 452.432 446.033C453.076 445.632 453.824 445.429 454.583 445.449C455.624 445.512 456.6 445.98 457.302 446.752C458.005 447.525 458.377 448.541 458.341 449.584Z" fill="#1BA798"/>
<g opacity="0.2">
<path d="M362.537 449.151C362.481 449.907 362.205 450.63 361.742 451.231C361.28 451.831 360.651 452.283 359.934 452.529C359.218 452.776 358.444 452.806 357.71 452.617C356.976 452.428 356.314 452.028 355.805 451.466C355.297 450.904 354.964 450.205 354.849 449.456C354.734 448.707 354.842 447.94 355.158 447.251C355.475 446.563 355.987 445.982 356.63 445.582C357.274 445.181 358.02 444.978 358.778 444.998C359.825 445.057 360.807 445.525 361.51 446.303C362.214 447.08 362.583 448.104 362.537 449.151Z" fill="white"/>
<path d="M374.507 449.208C374.544 449.738 374.472 450.269 374.295 450.77C374.117 451.271 373.839 451.729 373.477 452.118C373.114 452.506 372.676 452.816 372.189 453.028C371.702 453.239 371.177 453.349 370.646 453.349C370.114 453.349 369.589 453.239 369.102 453.028C368.615 452.816 368.177 452.506 367.814 452.118C367.452 451.729 367.174 451.271 366.996 450.77C366.819 450.269 366.747 449.738 366.784 449.208C366.747 448.678 366.819 448.146 366.996 447.646C367.174 447.145 367.452 446.686 367.814 446.298C368.177 445.909 368.615 445.6 369.102 445.388C369.589 445.176 370.114 445.067 370.646 445.067C371.177 445.067 371.702 445.176 372.189 445.388C372.676 445.6 373.114 445.909 373.477 446.298C373.839 446.686 374.117 447.145 374.295 447.646C374.472 448.146 374.544 448.678 374.507 449.208Z" fill="white"/>
<path d="M386.497 449.264C386.442 450.02 386.165 450.743 385.703 451.344C385.24 451.944 384.612 452.395 383.895 452.642C383.178 452.888 382.405 452.919 381.671 452.73C380.937 452.541 380.274 452.141 379.766 451.579C379.257 451.017 378.925 450.318 378.81 449.568C378.695 448.819 378.802 448.053 379.119 447.364C379.435 446.675 379.947 446.095 380.59 445.694C381.234 445.294 381.981 445.091 382.739 445.111C383.784 445.174 384.763 445.644 385.465 446.421C386.168 447.197 386.538 448.218 386.497 449.264Z" fill="white"/>
<path d="M398.468 449.321C398.413 450.076 398.136 450.799 397.674 451.4C397.211 452 396.583 452.452 395.866 452.698C395.149 452.945 394.376 452.975 393.642 452.786C392.908 452.597 392.245 452.197 391.737 451.635C391.228 451.073 390.896 450.374 390.781 449.625C390.666 448.876 390.773 448.109 391.09 447.42C391.406 446.732 391.918 446.151 392.561 445.751C393.205 445.35 393.952 445.147 394.709 445.167C395.755 445.23 396.734 445.701 397.436 446.477C398.139 447.253 398.509 448.274 398.468 449.321Z" fill="white"/>
<path d="M410.439 449.358C410.387 450.115 410.114 450.84 409.653 451.443C409.193 452.046 408.565 452.501 407.848 452.75C407.132 452.999 406.357 453.032 405.622 452.845C404.887 452.658 404.223 452.259 403.712 451.698C403.202 451.136 402.867 450.437 402.751 449.687C402.635 448.937 402.741 448.17 403.058 447.48C403.374 446.79 403.886 446.209 404.53 445.808C405.174 445.407 405.922 445.203 406.68 445.224C407.722 445.287 408.698 445.754 409.4 446.527C410.102 447.299 410.475 448.315 410.439 449.358Z" fill="white"/>
<path d="M422.428 449.415C422.377 450.168 422.107 450.889 421.651 451.491C421.194 452.092 420.572 452.547 419.861 452.8C419.15 453.052 418.38 453.091 417.647 452.912C416.913 452.733 416.248 452.343 415.734 451.791C415.219 451.238 414.877 450.548 414.75 449.804C414.623 449.059 414.716 448.294 415.018 447.603C415.32 446.911 415.818 446.322 416.45 445.91C417.082 445.497 417.821 445.278 418.576 445.28C419.634 445.319 420.634 445.777 421.356 446.551C422.078 447.326 422.464 448.356 422.428 449.415Z" fill="white"/>
<path d="M434.399 449.471C434.436 450.001 434.364 450.532 434.186 451.033C434.009 451.534 433.731 451.992 433.368 452.381C433.006 452.769 432.568 453.079 432.081 453.291C431.594 453.502 431.068 453.612 430.537 453.612C430.006 453.612 429.481 453.502 428.994 453.291C428.507 453.079 428.069 452.769 427.706 452.381C427.344 451.992 427.066 451.534 426.888 451.033C426.711 450.532 426.639 450.001 426.676 449.471C426.639 448.941 426.711 448.409 426.888 447.909C427.066 447.408 427.344 446.949 427.706 446.561C428.069 446.173 428.507 445.863 428.994 445.651C429.481 445.439 430.006 445.33 430.537 445.33C431.068 445.33 431.594 445.439 432.081 445.651C432.568 445.863 433.006 446.173 433.368 446.561C433.731 446.949 434.009 447.408 434.186 447.909C434.364 448.409 434.436 448.941 434.399 449.471Z" fill="white"/>
<path d="M446.37 449.527C446.319 450.28 446.048 451.002 445.592 451.604C445.136 452.205 444.514 452.66 443.803 452.912C443.091 453.165 442.322 453.204 441.588 453.025C440.855 452.845 440.19 452.456 439.676 451.903C439.161 451.351 438.819 450.66 438.692 449.916C438.565 449.172 438.658 448.407 438.96 447.715C439.262 447.024 439.76 446.435 440.392 446.022C441.024 445.61 441.763 445.391 442.518 445.393C443.576 445.432 444.576 445.889 445.298 446.664C446.02 447.439 446.406 448.469 446.37 449.527Z" fill="white"/>
<path d="M458.341 449.584C458.289 450.341 458.016 451.066 457.555 451.669C457.095 452.272 456.467 452.726 455.751 452.976C455.034 453.225 454.26 453.258 453.524 453.071C452.789 452.884 452.125 452.485 451.614 451.923C451.104 451.362 450.77 450.663 450.653 449.913C450.537 449.163 450.644 448.396 450.96 447.706C451.276 447.016 451.788 446.434 452.432 446.033C453.076 445.632 453.824 445.429 454.583 445.449C455.624 445.512 456.6 445.98 457.302 446.752C458.005 447.525 458.377 448.541 458.341 449.584Z" fill="white"/>
</g>
<path d="M441.334 178.294C442.639 177.72 443.747 176.773 444.519 175.574C445.291 174.374 445.693 172.974 445.675 171.548C445.724 170.621 445.583 169.693 445.262 168.822C444.94 167.951 444.445 167.154 443.806 166.481C443.167 165.807 442.397 165.271 441.544 164.905C440.691 164.538 439.772 164.349 438.844 164.349C437.915 164.349 436.997 164.538 436.143 164.905C435.29 165.271 434.521 165.807 433.882 166.481C433.243 167.154 432.747 167.951 432.426 168.822C432.105 169.693 431.964 170.621 432.013 171.548C431.984 172.989 432.383 174.405 433.159 175.619C433.935 176.834 435.053 177.791 436.373 178.37C425.849 179.948 426.319 191.374 426.319 191.374L451.2 191.487C451.2 191.487 451.782 179.854 441.334 178.294Z" fill="#1BA798"/>
<path opacity="0.1" d="M441.334 178.294C442.639 177.72 443.747 176.773 444.519 175.574C445.291 174.374 445.693 172.974 445.675 171.548C445.724 170.621 445.583 169.693 445.262 168.822C444.94 167.951 444.445 167.154 443.806 166.481C443.167 165.807 442.397 165.271 441.544 164.905C440.691 164.538 439.772 164.349 438.844 164.349C437.915 164.349 436.997 164.538 436.143 164.905C435.29 165.271 434.521 165.807 433.882 166.481C433.243 167.154 432.747 167.951 432.426 168.822C432.105 169.693 431.964 170.621 432.013 171.548C431.984 172.989 432.383 174.405 433.159 175.619C433.935 176.834 435.053 177.791 436.373 178.37C425.849 179.948 426.319 191.374 426.319 191.374L451.2 191.487C451.2 191.487 451.782 179.854 441.334 178.294Z" fill="black"/>
<path d="M481.765 198.856L393.084 198.454L393.036 209.053L481.717 209.455L481.765 198.856Z" fill="#1BA798"/>
<path opacity="0.2" d="M481.765 198.856L393.084 198.454L393.036 209.053L481.717 209.455L481.765 198.856Z" fill="white"/>
<path d="M155.743 253.784H154.86L152.304 253.972C150.921 254.055 149.546 254.237 148.189 254.517C147.31 254.64 146.438 254.81 145.577 255.024L142.664 255.833C137.706 257.354 133.028 259.67 128.814 262.692C123.245 266.734 118.596 271.909 115.17 277.876C113.157 281.316 111.555 284.981 110.397 288.795C109.18 292.94 108.48 297.219 108.311 301.536C108.199 303.804 108.237 306.076 108.424 308.339C108.424 309.485 108.743 310.632 108.894 311.797C109.02 312.971 109.24 314.134 109.551 315.273C111.241 322.814 114.67 329.856 119.564 335.837C124.458 341.817 130.683 346.572 137.74 349.72C142.848 351.924 148.323 353.154 153.883 353.347C159.625 353.663 165.374 352.839 170.796 350.923L172.45 350.303H172.676L172.863 350.415L196.561 362.443L195.866 363.044C193.329 355.189 190.886 347.578 188.518 340.267V339.986L188.724 339.779C194.473 333.989 198.741 326.898 201.165 319.107C203.361 311.985 204.002 304.474 203.044 297.082C202.193 290.513 200.08 284.171 196.824 278.402C194.017 273.447 190.396 269 186.112 265.248C182.578 262.277 178.667 259.788 174.48 257.843C171.311 256.477 168.012 255.438 164.632 254.743L160.874 254.122L158.149 253.916L156.495 253.803H155.931C156.119 253.782 156.308 253.782 156.495 253.803H158.168L160.893 253.916L164.651 254.461C168.073 255.105 171.417 256.107 174.63 257.449C178.889 259.37 182.871 261.854 186.469 264.834C190.831 268.57 194.53 273.018 197.407 277.989C200.755 283.819 202.932 290.248 203.815 296.913C204.852 304.419 204.256 312.06 202.067 319.314C199.627 327.266 195.293 334.508 189.438 340.418L189.551 339.929C191.919 347.239 194.381 354.85 196.937 362.687L197.294 363.833L196.223 363.288L172.525 351.28H172.939L171.247 351.9C165.72 353.845 159.866 354.688 154.015 354.381C148.335 354.164 142.745 352.89 137.533 350.622C127.592 346.364 119.32 338.964 113.986 329.556C111.532 325.21 109.739 320.523 108.668 315.649C108.375 314.48 108.155 313.294 108.01 312.097C107.86 310.913 107.616 309.748 107.559 308.583C107.051 301.897 107.757 295.173 109.645 288.738C110.832 284.872 112.479 281.162 114.55 277.688C118.057 271.666 122.804 266.459 128.475 262.41C132.759 259.381 137.516 257.082 142.551 255.607L145.502 254.855C146.37 254.654 147.248 254.497 148.132 254.385C149.504 254.132 150.892 253.981 152.286 253.934L154.86 253.84C155.153 253.801 155.448 253.782 155.743 253.784Z" fill="#1BA798"/>
<path d="M166.455 297.608H162.979L155.462 287.047V280.112C155.462 280.112 150.087 279.774 150.726 288.851C151.365 297.928 150.726 295.616 150.726 295.616C150.726 295.616 139.319 295.616 138.379 296.65C137.44 297.684 137.383 308.696 137.252 314.841C137.18 316.322 137.605 317.785 138.459 318.998C139.314 320.21 140.549 321.101 141.968 321.531C142.366 321.641 142.777 321.698 143.19 321.7C146.046 321.7 160.573 319.389 160.573 319.389H166.568L166.455 297.608Z" fill="#1BA798"/>
<path d="M176.396 295.748L174.254 319.502H168.316V296.236L176.396 295.748Z" fill="#1BA798"/>
<path d="M247.226 779.336V763.269L218.417 763.062L218.172 787.361L219.958 787.492C227.907 788 260.399 788.752 265.736 787.098C271.675 785.256 247.226 779.336 247.226 779.336Z" fill="#1BA798"/>
<path d="M266.413 785.594C266.413 785.858 255.626 786.083 242.34 786.083C229.053 786.083 218.266 785.858 218.266 785.594C218.266 785.331 229.053 785.106 242.34 785.106C255.626 785.106 266.413 785.331 266.413 785.594Z" fill="#263238"/>
<path d="M247.733 782.625C247.489 782.494 247.733 781.648 248.316 780.746C248.898 779.844 249.687 779.468 249.875 779.656C250.063 779.844 249.669 780.558 249.105 781.329C248.541 782.099 247.977 782.757 247.733 782.625Z" fill="#263238"/>
<path d="M249.575 783.677C249.312 783.677 249.443 782.625 250.007 781.629C250.571 780.633 251.322 780.032 251.529 780.182C251.736 780.332 251.398 781.178 250.871 782.061C250.345 782.945 249.819 783.771 249.575 783.677Z" fill="#263238"/>
<path d="M226.948 785.519C226.836 785.519 226.403 785.181 225.783 784.467C225.026 783.549 224.183 782.706 223.265 781.949C222.362 781.227 221.287 780.755 220.146 780.577C219.262 780.464 218.699 780.577 218.642 780.464C218.586 780.351 219.131 779.957 220.164 779.881C221.528 779.853 222.859 780.305 223.923 781.159C224.92 781.972 225.76 782.959 226.403 784.072C226.836 784.899 227.061 785.444 226.948 785.519Z" fill="#263238"/>
<path d="M247.827 779.6C247.959 779.825 247.47 780.389 246.643 780.69C245.816 780.99 245.083 780.878 245.046 780.69C245.008 780.502 245.591 780.107 246.305 779.844C247.019 779.581 247.677 779.374 247.827 779.6Z" fill="#263238"/>
<path d="M247.376 778.04C247.376 778.322 246.624 778.547 245.647 778.566C244.67 778.585 243.899 778.359 243.918 778.096C243.937 777.833 244.707 777.589 245.647 777.57C246.587 777.551 247.338 777.777 247.376 778.04Z" fill="#263238"/>
<path d="M318.168 779.336V763.269L289.359 763.062L289.114 787.117L290.9 787.248C298.849 787.756 331.36 788.752 336.678 787.098C342.617 785.256 318.168 779.336 318.168 779.336Z" fill="#1BA798"/>
<path d="M337.355 785.632C337.355 785.895 326.587 786.121 313.282 786.121C299.976 786.121 289.227 785.895 289.227 785.632C289.227 785.369 299.995 785.143 313.282 785.143C326.568 785.143 337.355 785.369 337.355 785.632Z" fill="#263238"/>
<path d="M318.675 782.625C318.449 782.494 318.675 781.648 319.258 780.746C319.84 779.844 320.629 779.468 320.817 779.656C321.005 779.844 320.611 780.558 320.047 781.329C319.483 782.099 318.919 782.757 318.675 782.625Z" fill="#263238"/>
<path d="M320.517 783.677C320.272 783.677 320.385 782.625 320.968 781.629C321.55 780.633 322.283 780.032 322.49 780.182C322.697 780.332 322.339 781.178 321.813 782.061C321.287 782.945 320.78 783.771 320.517 783.677Z" fill="#263238"/>
<path d="M297.89 785.519C297.778 785.519 297.364 785.181 296.725 784.467C295.968 783.549 295.125 782.706 294.207 781.949C293.304 781.227 292.229 780.755 291.087 780.577C290.223 780.464 289.64 780.577 289.584 780.464C289.528 780.351 290.073 779.957 291.106 779.881C292.47 779.853 293.801 780.305 294.865 781.159C295.867 781.966 296.708 782.954 297.345 784.072C297.778 784.899 298.003 785.444 297.89 785.519Z" fill="#263238"/>
<path d="M318.769 779.6C318.9 779.825 318.412 780.389 317.585 780.69C316.758 780.99 316.025 780.878 315.988 780.69C315.95 780.502 316.533 780.107 317.247 779.844C317.961 779.581 318.619 779.374 318.769 779.6Z" fill="#263238"/>
<path d="M318.355 778.04C318.355 778.322 317.604 778.547 316.626 778.566C315.649 778.585 314.898 778.359 314.916 778.096C314.935 777.833 315.687 777.589 316.626 777.57C317.566 777.551 318.355 777.777 318.355 778.04Z" fill="#263238"/>
<path d="M424.308 302.194C423.556 301.423 421.696 301.799 421.696 301.799C421.882 300.717 421.882 299.611 421.696 298.529C421.357 297.477 418.99 297.683 418.99 297.683C418.88 296.797 418.88 295.901 418.99 295.015C419.008 294.819 418.966 294.621 418.869 294.45C418.771 294.278 418.623 294.141 418.445 294.057C417.324 293.6 416.121 293.382 414.912 293.418C413.465 292.384 419.328 284.172 421.508 281.541C423.688 278.91 423.293 276.861 421.357 276.861C420.023 276.861 413.183 284.754 411.078 287.404C408.973 290.054 403.392 297.42 403.204 291.538C403.016 285.656 400.648 281.221 399.163 280.47C397.679 279.718 396.1 281.484 396.908 283.119C397.618 284.977 398.061 286.925 398.224 288.907C398.428 290.486 398.358 292.088 398.017 293.643C397.394 296.536 396.546 299.376 395.48 302.137H395.33C395.33 302.137 354.324 341.47 351.355 344.27C348.705 346.788 295.41 341.282 284.717 340.155C281.083 339.623 277.414 339.372 273.742 339.403C269.1 339.61 268.273 340.267 263.65 340.324C251.975 340.453 240.327 341.477 228.809 343.387C223.593 344.274 218.721 346.576 214.725 350.042C210.728 353.509 207.76 358.006 206.145 363.044C195.377 396.683 170.984 476.307 166.681 521.033C163.429 526.93 160.493 532.996 157.886 539.205C154.86 547.436 155.593 547.718 156.608 547.906C159.352 548.414 162.471 533.643 163.636 537.213C164.802 540.784 157.717 554.822 160.592 555.235C164.351 555.762 167.339 540.201 167.696 538.961C168.053 537.721 169.913 538.115 169.575 539.281C169.03 540.934 163.749 558.468 167.432 559.031C169.462 559.332 169.688 555.63 169.688 555.63C169.688 555.63 173.446 538.848 175.156 539.187C176.866 539.525 175.043 549.428 174.179 552.736C173.315 556.043 174.517 557.716 176.284 556.908C177.486 556.344 180.362 546.29 181.151 543.02C181.94 539.75 183.914 530.692 186.563 535.935C189.213 541.179 193.235 544.223 194.888 544.298C195.261 544.255 195.612 544.102 195.897 543.857C196.182 543.613 196.387 543.289 196.486 542.927C196.585 542.566 196.573 542.182 196.453 541.827C196.332 541.472 196.108 541.161 195.809 540.934C194.387 539.545 193.166 537.964 192.182 536.236C191.306 534.89 190.67 533.402 190.303 531.839C189.546 528.721 189.105 525.535 188.988 522.33L188.687 520.45C192.896 499.609 205.018 438.44 222.513 399.37L229.692 414.141L232.812 425.078L213.681 472.304L295.278 471.233L283.101 424.364L297.89 375.503C313.883 375.86 354.945 376.462 361.785 373.361C370.392 369.603 414.912 313.375 414.912 313.375C417.814 311.12 420.593 308.711 423.237 306.159C423.237 306.159 425.943 303.885 424.308 302.194Z" fill="#FFBE9D"/>
<path d="M210.092 437.406C212.459 429.325 224.618 389.372 224.618 389.372C224.618 389.372 230.594 421.94 229.016 425.867C227.564 429.23 225.848 432.472 223.885 435.564C210.092 456.556 211.896 467.061 211.896 467.061L295.241 464.524C295.429 452.872 288.532 425.774 287.103 421.451C285.675 417.129 290.43 402.978 290.43 402.978C290.43 402.978 299.826 393.413 299.488 388.489C299.309 384.066 298.762 379.666 297.853 375.334L348.593 377.214L346.995 342.823L274.118 335.532C271.581 342.692 248.635 339.177 248.635 339.177C223.866 340.004 222.325 344.552 212.027 352.558C201.729 360.563 184.684 429.269 184.684 429.269L210.092 437.406Z" fill="#1BA798"/>
<path d="M259.366 429.269C257.921 429.527 256.45 429.603 254.987 429.494C252.262 429.494 248.522 429.306 244.407 428.893C240.291 428.48 236.57 427.897 233.921 427.371C232.46 427.183 231.027 426.817 229.655 426.281C231.124 426.281 232.59 426.42 234.033 426.694C236.702 427.033 240.404 427.502 244.501 427.916C248.598 428.329 252.318 428.611 255.006 428.799C256.471 428.818 257.93 428.975 259.366 429.269Z" fill="#263238"/>
<path d="M265.079 422.184C263.634 422.892 262.106 423.416 260.531 423.744C253.033 425.714 245.298 426.631 237.547 426.469C235.944 426.521 234.34 426.369 232.774 426.018C234.357 425.818 235.953 425.736 237.547 425.774C240.498 425.68 244.557 425.473 249.03 424.947C253.502 424.42 257.486 423.669 260.305 423.067C261.871 422.649 263.467 422.354 265.079 422.184Z" fill="#263238"/>
<path d="M293.117 390.575C293.079 392.008 292.884 393.432 292.534 394.822C292.046 397.434 291.294 401.005 290.336 404.914C289.377 408.823 288.457 412.431 287.63 414.874C287.297 416.272 286.805 417.628 286.164 418.914C286.269 417.486 286.533 416.074 286.953 414.705C287.667 411.773 288.475 408.39 289.377 404.688C290.279 400.986 291.144 397.603 291.858 394.672C292.112 393.261 292.535 391.885 293.117 390.575Z" fill="#263238"/>
<path d="M210.975 432.614C206.627 431.943 202.337 430.944 198.14 429.626C193.851 428.623 189.642 427.304 185.549 425.68C189.894 426.362 194.184 427.361 198.384 428.668C202.673 429.667 206.882 430.986 210.975 432.614Z" fill="#263238"/>
<path d="M298.755 374.921C298.046 375.043 297.321 375.043 296.612 374.921C294.649 374.72 292.722 374.258 290.881 373.549C287.806 372.394 285.008 370.608 282.665 368.307C280.321 366.006 278.486 363.24 277.275 360.188C275.937 356.829 275.365 353.215 275.602 349.607C275.686 346.632 276.576 343.735 278.177 341.226C279.303 339.535 280.985 338.292 282.931 337.712C283.452 337.568 283.989 337.499 284.529 337.505C284.905 337.505 285.093 337.505 285.093 337.505C285.093 337.505 284.303 337.505 283.044 338.012C281.258 338.672 279.744 339.909 278.741 341.527C276.185 345.548 275.471 352.896 278.196 359.755C279.464 362.99 281.449 365.894 284.003 368.25C286.095 370.177 288.504 371.728 291.125 372.835C293.584 373.807 296.143 374.506 298.755 374.921Z" fill="#263238"/>
<path d="M342.56 376.537C342.09 370.774 341.94 364.99 342.109 359.21C341.962 353.436 342.138 347.657 342.635 341.902C343.106 347.659 343.256 353.437 343.086 359.21C343.244 364.991 343.069 370.776 342.56 376.537Z" fill="#263238"/>
<path d="M273.629 337.636C273.836 333.446 274.268 328.71 274.268 328.71C274.268 328.71 284.642 327.564 285.262 316.852C285.882 306.14 285.262 281.428 285.262 281.428L266.469 271.806L245.609 288.212L248.823 341.771L267.954 342.992C269.416 343.033 270.835 342.492 271.899 341.488C272.963 340.484 273.585 339.099 273.629 337.636Z" fill="#FFBE9D"/>
<path d="M275.49 308.376C275.49 308.376 275.49 308.583 275.32 308.827C275.181 309.005 275 309.145 274.794 309.237C274.587 309.329 274.362 309.369 274.137 309.354C272.934 309.354 271.769 307.963 271.355 306.347C271.159 305.563 271.159 304.744 271.355 303.96C271.394 303.618 271.517 303.291 271.714 303.009C271.911 302.727 272.175 302.498 272.483 302.344C272.736 302.24 273.019 302.24 273.272 302.344C273.459 302.437 273.611 302.589 273.704 302.776C273.836 303.096 273.704 303.302 273.704 303.284C273.704 303.265 273.704 303.096 273.516 302.908C273.418 302.773 273.274 302.68 273.111 302.645C272.948 302.61 272.778 302.637 272.633 302.72C272.403 302.859 272.211 303.055 272.076 303.288C271.942 303.521 271.868 303.785 271.863 304.054C271.704 304.753 271.704 305.479 271.863 306.178C272.238 307.644 273.253 308.827 274.155 308.94C274.332 308.964 274.511 308.951 274.683 308.903C274.854 308.854 275.014 308.771 275.151 308.658C275.377 308.508 275.452 308.358 275.49 308.376Z" fill="#EB996E"/>
<path d="M291.708 275.64C290.261 270.716 285.017 268.273 280.244 266.92C272.971 264.853 265.116 263.951 258.013 266.563C250.909 269.175 242.377 273.761 242.377 281.597C238.186 281.259 235.781 284.923 234.127 289.471C233.07 292.242 232.436 295.156 232.248 298.116C231.722 308.376 228.847 322.546 222.194 330.063C218.435 334.254 213.23 337.148 211.088 342.372C209.208 346.901 210.186 352.276 208.438 356.861C206.878 360.902 203.439 363.777 200.921 367.291C198.355 371.278 196.845 375.851 196.533 380.582C196.221 385.312 197.116 390.044 199.136 394.334C201.169 398.513 204.032 402.234 207.551 405.271C211.069 408.308 215.169 410.597 219.601 411.999C228.379 414.669 237.739 414.76 246.568 412.262C253.194 410.677 259.375 407.613 264.646 403.298C270.04 398.893 273.745 392.758 275.133 385.933C276.467 378.266 274.325 370.467 272.727 362.837C267.728 338.726 269.157 337.467 275.471 315.085C275.621 314.691 275.696 314.277 275.809 313.883C275.922 313.488 275.978 313.3 276.053 312.999C276.233 312.115 276.327 311.215 276.335 310.312C275.413 310.655 274.412 310.728 273.45 310.521C272.488 310.315 271.605 309.838 270.904 309.147C270.202 308.41 269.713 307.497 269.488 306.504C269.263 305.512 269.311 304.477 269.626 303.509C270.07 302.451 270.73 301.498 271.566 300.711C272.401 299.924 273.392 299.322 274.475 298.943C276.561 298.078 278.797 297.627 280.846 296.669C285.187 294.602 288.193 290.317 290.242 285.825C291.926 282.712 292.446 279.101 291.708 275.64Z" fill="#263238"/>
<path d="M276.241 308.884C276.638 309.471 276.966 310.101 277.219 310.763C277.782 311.947 278.534 313.62 279.361 315.555L279.511 315.912H279.117L277.237 316.081C275.941 316.081 274.851 316.326 273.573 316.307C273.462 316.282 273.358 316.229 273.273 316.154C273.188 316.078 273.123 315.982 273.084 315.875C273.028 315.704 273.028 315.519 273.084 315.348C273.128 315.095 273.184 314.844 273.253 314.597L273.592 313.263C273.762 312.372 274.026 311.503 274.381 310.669C274.346 311.576 274.214 312.477 273.986 313.356L273.723 314.691C273.629 315.142 273.46 315.837 273.723 315.781C274.663 315.781 275.997 315.574 277.237 315.499L279.117 315.33L278.872 315.743C278.064 313.864 277.388 312.097 276.993 310.876C276.647 310.252 276.394 309.581 276.241 308.884Z" fill="#1BA798"/>
<path d="M211.896 467.061L295.241 464.524L331.51 606.107L324.839 768.512H280.77L286.164 609.565L253.935 510.998L258.896 774.807L214.358 775.465L209.678 527.498C209.471 520.601 207.216 505.059 208.062 498.219L211.896 467.061Z" fill="#263238"/>
<path d="M265.022 513.009C263.658 513.094 262.288 513.012 260.944 512.764C258.426 512.464 254.987 511.937 251.21 511.186C247.432 510.434 244.05 509.57 241.607 508.874C240.301 508.587 239.037 508.132 237.848 507.521C237.848 507.239 243.975 508.705 251.492 510.227C259.009 511.749 265.06 512.727 265.022 513.009Z" fill="#455A64"/>
<path d="M324.388 759.604C324.388 759.867 314.409 760.093 302.1 760.093C289.791 760.093 279.793 759.867 279.793 759.604C279.793 759.341 289.772 759.116 302.1 759.116C314.428 759.116 324.388 759.322 324.388 759.604Z" fill="#455A64"/>
<path d="M258.501 767.948C258.501 768.23 248.804 768.437 236.852 768.437C224.9 768.437 215.222 768.23 215.222 767.948C215.222 767.666 224.919 767.46 236.852 767.46C248.785 767.46 258.501 767.685 258.501 767.948Z" fill="#455A64"/>
<path d="M252.751 767.272C252.488 767.272 251.322 709.635 250.138 638.543C248.955 567.451 248.259 509.776 248.504 509.776C248.748 509.776 249.951 567.394 251.116 638.524C252.281 709.654 253.033 767.272 252.751 767.272Z" fill="#455A64"/>
<path d="M318.468 759.604C318.448 759.348 318.448 759.09 318.468 758.834V756.579C318.468 754.549 318.619 751.636 318.731 747.934C318.994 740.417 319.37 729.499 319.84 716.118C320.855 689.208 322.283 652.111 323.843 611.162C323.843 610.767 323.843 610.392 323.843 610.053V610.185C313.977 570.72 305.05 534.902 298.567 508.987L291.05 478.336C290.185 474.747 289.528 471.947 289.058 469.992C288.832 469.072 288.682 468.357 288.55 467.812C288.477 467.568 288.433 467.316 288.419 467.061C288.517 467.298 288.592 467.543 288.644 467.794C288.795 468.32 288.983 469.034 289.246 469.936C289.753 471.815 290.486 474.672 291.426 478.242C293.305 485.496 295.955 495.945 299.262 508.818C305.802 534.714 314.822 570.439 324.82 609.959V610.091C324.82 610.429 324.82 610.824 324.82 611.2C323.148 652.149 321.625 689.226 320.517 716.137C319.934 729.536 319.445 740.38 319.107 747.934C318.919 751.693 318.769 754.549 318.675 756.579C318.675 757.537 318.562 758.289 318.543 758.834C318.546 759.093 318.521 759.351 318.468 759.604Z" fill="#455A64"/>
<path d="M304.092 606.746C300.927 607.786 297.666 608.51 294.357 608.907C290.298 609.602 286.84 610.091 285.281 610.166V609.79C285.788 609.94 286.051 610.034 286.051 610.11C286.051 610.185 285.732 610.11 285.205 610.11H284.078L285.205 609.771C286.671 609.339 290.129 608.625 294.188 607.892C297.444 607.186 300.761 606.802 304.092 606.746Z" fill="#455A64"/>
<path d="M303.321 612.139C300.39 612.273 297.453 612.141 294.545 611.745C291.61 611.684 288.685 611.364 285.807 610.786C291.68 610.307 297.592 610.764 303.321 612.139Z" fill="#455A64"/>
<path opacity="0.2" d="M211.539 470.049C212.526 471.316 213.769 472.361 215.187 473.116C216.606 473.87 218.167 474.317 219.77 474.427C223.126 474.825 226.522 474.762 229.861 474.239C251.379 471.853 274.174 469.654 295.241 464.524C267.973 466.046 239.164 465.539 211.896 467.061L211.614 469.391" fill="black"/>
<g opacity="0.2">
<path d="M239.633 508.479L255.006 568.127L253.935 510.998L239.633 508.479Z" fill="black"/>
</g>
</svg>
